# xmcd
#
# Track frame offsets:
# 150
# 18936
# 36057
# 53677
# 69591
# 85352
# 103436
# 120335
# 135541
# 155805
# 171489
# 189933
# 204193
# 218830
# 237505
# 252742
#
# Disc length: 3598 seconds
#
#
# Revision: 0
# Processed by: cddbd v1.5.2PL0 Copyright (c) Steve Scherf et al.
# Submitted via: FreeRIP 2.96 
#
DISCID=e50e0c10
DTITLE=Eduardo Costa  - Ao vivo - Gravação do DVD
DYEAR=2006
DGENRE=Sertanejo 
TTITLE0=Não preciso de você
TTITLE1=Me apaixonei
TTITLE2=Linda de mais
TTITLE3=Na saideira
TTITLE4=Passou
TTITLE5=Minha Estrela Perdida Participação especial Alan e Alex
TTITLE6=Olhando nos teus olhos
TTITLE7=A gente se enrosca
TTITLE8=Separação Participação Leonardo
TTITLE9=Amor de violeiro
TTITLE10=Me encaga que eu gosto
TTITLE11=Eu quero este amor
TTITLE12=Eu quero esse amor
TTITLE13=Eu sou desejo, Você é paixão
TTITLE14=Cena de filme
TTITLE15=Ilusão
EXTD=Emerson-u2@superig.com.br
EXTT0=
EXTT1=
EXTT2=
EXTT3=
EXTT4=
EXTT5=
EXTT6=
EXTT7=
EXTT8=
EXTT9=
EXTT10=
EXTT11=
EXTT12=
EXTT13=
EXTT14=
EXTT15=
PLAYORDER=
